<svg width="54" height="87" viewBox="0 0 54 87" fill="none" xmlns="http://www.w3.org/2000/svg">
<path d="M51.0304 41.4122C51.0304 41.4122 49.7224 45.0187 47.6812 50.2005C47.0212 51.8837 46.282 53.7314 45.485 55.6762C44.3747 58.3845 43.1518 61.2815 41.8712 64.1785C41.0834 65.9616 40.2742 67.7419 39.4559 69.4817C35.0573 78.8067 30.3728 86.8855 27.3035 86.9988C20.4075 87.2524 5.63598 46.3377 4.02376 41.8168C3.92944 41.5525 3.8808 41.4122 3.8808 41.4122H51.0304Z" fill="#DDBEA9"/>
<path opacity="0.1" d="M47.6812 50.2005C47.0211 51.8837 46.2819 53.7314 45.485 55.6762L27.2183 41.4122H36.4261L47.6812 50.2005Z" fill="black"/>
<path opacity="0.1" d="M41.8712 64.1785C41.0834 65.9616 40.2742 67.7419 39.4559 69.4817L4.02376 41.8168C3.92944 41.5525 3.8808 41.4122 3.8808 41.4122H12.7145L41.8712 64.1785Z" fill="black"/>
<path d="M28.2732 5.17522C26.1117 6.69349 22.6939 6.11939 20.6166 7.7274C19.1957 8.8273 18.8166 10.7082 19.2043 12.345C19.592 13.9818 20.6223 15.4342 21.6588 16.8316C22.3742 17.7959 23.1163 18.7679 24.1215 19.5014C25.5268 20.5269 27.3303 21.0042 29.0982 21.3877C32.9481 22.2224 36.8794 22.7277 40.8381 22.8967C42.6035 22.972 44.6028 22.8967 45.7922 21.7375C46.4849 21.0625 46.7634 20.1374 46.9664 19.2427C47.2838 17.8431 47.4603 16.3363 46.8042 15.0327C46.2649 13.9612 45.227 13.158 44.1761 12.4449C40.8798 10.2083 36.9976 8.35655 34.9858 5.13725C34.1861 3.85763 33.693 2.37481 32.481 1.38198C30.9011 0.0879118 27.3859 -0.441233 25.5258 0.423227C25.8131 1.00421 29.5689 4.26506 28.2732 5.17522Z" fill="#DEAAFF"/>
<path d="M10.1099 20.2652C9.46901 22.2359 8.87862 24.3209 9.41824 26.3153C10.1297 28.9447 12.7296 30.914 15.5816 31.8712C18.4336 32.8284 21.5437 32.9401 24.591 33.0411L40.5459 33.5695C42.551 33.6359 44.5947 33.7088 46.4792 34.32C48.0323 34.8238 49.8783 35.6533 51.1731 34.741C51.7604 34.3272 52.0243 33.6573 52.2327 33.0183C52.9108 30.9392 53.2902 28.6562 52.3782 26.6486C51.3332 24.3481 48.7563 22.8365 46.0808 22.1139C43.4052 21.3913 40.5717 21.3209 37.7918 21.0481C34.9718 20.7711 32.1836 20.2817 29.4573 19.5851C27.1782 19.0026 24.869 18.234 23.1832 16.7545C22.2712 15.9541 21.5807 14.9781 20.7212 14.1334C15.7973 9.29464 11.3209 16.5414 10.1099 20.2652Z" fill="#DEAAFF"/>
<path d="M6.60389 29.3186C5.05206 29.935 3.70601 30.8963 2.69613 32.1094C1.68624 33.3225 1.04675 34.7463 0.839566 36.2429C0.632383 37.7395 0.864539 39.2582 1.51356 40.6518C2.16257 42.0455 3.20645 43.267 4.54409 44.1979C6.97348 45.8886 10.1527 46.4765 13.233 46.6733C16.2408 46.8655 19.2615 46.7333 22.2734 46.601L48.9219 45.4306C50.4839 45.362 52.2519 45.2026 53.2054 44.1033C53.9171 43.2829 53.9589 42.1513 53.789 41.1273C53.1777 37.4436 50.041 34.1824 46.0354 33.066C44.5247 32.6449 42.9341 32.5117 41.3574 32.3809L29.9339 31.433C28.3956 31.3054 26.8482 31.1764 25.3572 30.817C20.8398 29.7281 16.8032 26.5489 12.152 27.0196C8.99663 27.339 6.3986 29.2978 4.10648 31.2472" fill="#DEAAFF"/>
<path opacity="0.1" d="M21.5239 13.359C21.5239 13.359 25.2523 19.3283 44.3773 21.7385L21.5239 13.359Z" fill="black"/>
<path opacity="0.1" d="M10.9449 28.9936C10.9449 28.9936 17.8736 35.2082 46.4675 35.2082L10.9449 28.9936Z" fill="black"/>
<path d="M26.9993 10.3918C28.0073 10.3918 28.8244 10.1503 28.8244 9.85235C28.8244 9.5544 28.0073 9.31287 26.9993 9.31287C25.9913 9.31287 25.1741 9.5544 25.1741 9.85235C25.1741 10.1503 25.9913 10.3918 26.9993 10.3918Z" fill="#7D1AAB"/>
<path d="M33.0831 13.8984C34.0911 13.8984 34.9082 13.6569 34.9082 13.3589C34.9082 13.061 34.0911 12.8195 33.0831 12.8195C32.0751 12.8195 31.2579 13.061 31.2579 13.3589C31.2579 13.6569 32.0751 13.8984 33.0831 13.8984Z" fill="#7D1AAB"/>
<path d="M40.0795 17.6749C41.0875 17.6749 41.9046 17.4333 41.9046 17.1354C41.9046 16.8374 41.0875 16.5959 40.0795 16.5959C39.0715 16.5959 38.2543 16.8374 38.2543 17.1354C38.2543 17.4333 39.0715 17.6749 40.0795 17.6749Z" fill="#7D1AAB"/>
<path d="M15.7442 19.2933C16.7522 19.2933 17.5693 19.0518 17.5693 18.7538C17.5693 18.4559 16.7522 18.2144 15.7442 18.2144C14.7362 18.2144 13.919 18.4559 13.919 18.7538C13.919 19.0518 14.7362 19.2933 15.7442 19.2933Z" fill="#7D1AAB"/>
<path d="M31.2579 24.4184C32.2659 24.4184 33.083 24.1769 33.083 23.879C33.083 23.581 32.2659 23.3395 31.2579 23.3395C30.2499 23.3395 29.4327 23.581 29.4327 23.879C29.4327 24.1769 30.2499 24.4184 31.2579 24.4184Z" fill="#7D1AAB"/>
<path d="M9.35614 34.9384C10.3641 34.9384 11.1813 34.6969 11.1813 34.3989C11.1813 34.101 10.3641 33.8594 9.35614 33.8594C8.34815 33.8594 7.53101 34.101 7.53101 34.3989C7.53101 34.6969 8.34815 34.9384 9.35614 34.9384Z" fill="#7D1AAB"/>
<path d="M20.9155 24.9579C21.9235 24.9579 22.7407 24.7164 22.7407 24.4185C22.7407 24.1205 21.9235 23.879 20.9155 23.879C19.9075 23.879 19.0903 24.1205 19.0903 24.4185C19.0903 24.7164 19.9075 24.9579 20.9155 24.9579Z" fill="#7D1AAB"/>
<path d="M13.919 38.9846C14.927 38.9846 15.7442 38.7431 15.7442 38.4451C15.7442 38.1472 14.927 37.9056 13.919 37.9056C12.911 37.9056 12.0939 38.1472 12.0939 38.4451C12.0939 38.7431 12.911 38.9846 13.919 38.9846Z" fill="#7D1AAB"/>
<path d="M25.7824 36.5569C26.7904 36.5569 27.6076 36.3153 27.6076 36.0174C27.6076 35.7194 26.7904 35.4779 25.7824 35.4779C24.7744 35.4779 23.9573 35.7194 23.9573 36.0174C23.9573 36.3153 24.7744 36.5569 25.7824 36.5569Z" fill="#7D1AAB"/>
<path d="M32.931 49.5046C34.023 49.5046 34.9082 47.8742 34.9082 45.863C34.9082 43.8519 34.023 42.2215 32.931 42.2215C31.839 42.2215 30.9537 43.8519 30.9537 45.863C30.9537 47.8742 31.839 49.5046 32.931 49.5046Z" fill="#DEAAFF"/>
<path d="M35.3646 50.8532C36.4566 50.8532 37.3418 49.2229 37.3418 47.2117C37.3418 45.2006 36.4566 43.5702 35.3646 43.5702C34.2726 43.5702 33.3873 45.2006 33.3873 47.2117C33.3873 49.2229 34.2726 50.8532 35.3646 50.8532Z" fill="#DEAAFF"/>
</svg>
